<?xml version="1.0" standalone="no"?><svg xmlns:xlink="http://www.w3.org/1999/xlink" xmlns="http://www.w3.org/2000/svg" viewBox="0 0 2000 1250.0110191380388" preserveAspectRatio="xMaxYMax slice"><g transform="scale(1.7630620862313664)"><rect x="0" y="0" width="1134.4" height="709" fill="#ffffff"/><rect x="141.8" y="0" width="70.9" height="70.9" fill="#ffffff"/><path d="M 141.8 0 A 35.45 35.45 0 0 1  177.25 35.45 L 141.8 0 A 35.45 35.45 0 0 0 177.25 35.45" fill="#f6f7f9"/><path d="M 177.25 35.45 A 35.45 35.45 0 0 1  212.7 70.9 L 177.25 35.45 A 35.45 35.45 0 0 0 212.7 70.9" fill="#96a1b4"/><path d="M 283.6 0 A 70.9 70.9 0 0 1  354.5 70.9 L 283.6 0 A 70.9 70.9 0 0 0 354.5 70.9" fill="#9ca6b8"/><rect x="425.40000000000003" y="0" width="70.9" height="70.9" fill="#ffffff"/><path d="M 709 0 A 70.9 70.9 0 0 1  779.9 70.9 L 709 0 A 70.9 70.9 0 0 0 779.9 70.9" fill="#f35467"/><path d="M 992.6 70.9 A 70.9 70.9 0 0 1  1063.5 0 L 992.6 70.9 A 70.9 70.9 0 0 0 1063.5 0" fill="#fcd4d8"/><path d="M 141.8 141.8 A 70.9 70.9 0 0 1  212.70000000000002 70.9 L 141.8 141.8 A 70.9 70.9 0 0 0 212.70000000000002 70.9" fill="#f46879"/><rect x="212.70000000000002" y="70.9" width="70.9" height="70.9" fill="#ffffff"/><rect x="283.6" y="70.9" width="70.9" height="70.9" fill="#ffffff"/><path d="M 319.05 70.9 A 35.45 35.45 0 0 1  354.5 106.35000000000001 L 319.05 70.9 A 35.45 35.45 0 0 0 354.5 106.35000000000001" fill="#f8f9fa"/><path d="M 283.6 141.8 A 35.45 35.45 0 0 1  319.05 106.35 L 283.6 141.8 A 35.45 35.45 0 0 0 319.05 106.35" fill="#f57b8a"/><rect x="425.40000000000003" y="70.9" width="70.9" height="70.9" fill="#ffffff"/><path d="M 425.4 106.35000000000001 A 35.45 35.45 0 0 1  460.84999999999997 70.9 L 425.4 106.35000000000001 A 35.45 35.45 0 0 0 460.84999999999997 70.9" fill="#bbc2cf"/><path d="M 496.3 141.8 A 70.9 70.9 0 0 1  567.2 70.9 L 496.3 141.8 A 70.9 70.9 0 0 0 567.2 70.9" fill="#aeb7c6"/><rect x="921.7" y="70.9" width="70.9" height="70.9" fill="#ffffff"/><path d="M 921.7 106.35 A 35.45 35.45 0 0 1  957.1500000000001 141.8 L 921.7 106.35 A 35.45 35.45 0 0 0 957.1500000000001 141.8" fill="#9fa9bb"/><path d="M 70.9 141.8 A 70.9 70.9 0 0 1  141.8 212.70000000000002 L 70.9 141.8 A 70.9 70.9 0 0 0 141.8 212.70000000000002" fill="#f46d7e"/><rect x="141.8" y="141.8" width="70.9" height="70.9" fill="#ffffff"/><path d="M 177.25 177.25 A 35.45 35.45 0 0 1  212.7 212.7 L 177.25 177.25 A 35.45 35.45 0 0 0 212.7 212.7" fill="#fffefe"/><rect x="283.6" y="141.8" width="70.9" height="70.9" fill="#ffffff"/><rect x="425.40000000000003" y="141.8" width="70.9" height="70.9" fill="#ffffff"/><path d="M 425.4 177.25 A 35.45 35.45 0 0 1  460.84999999999997 212.7 L 425.4 177.25 A 35.45 35.45 0 0 0 460.84999999999997 212.7" fill="#f46779"/><path d="M 460.85 212.7 A 35.45 35.45 0 0 1  496.3 177.25 L 460.85 212.7 A 35.45 35.45 0 0 0 496.3 177.25" fill="#919db1"/><path d="M 567.2 141.8 A 70.9 70.9 0 0 1  638.1 212.70000000000002 L 567.2 141.8 A 70.9 70.9 0 0 0 638.1 212.70000000000002" fill="#f9aab4"/><path d="M 638.1 212.70000000000002 A 70.9 70.9 0 0 1  709 141.8 L 638.1 212.70000000000002 A 70.9 70.9 0 0 0 709 141.8" fill="#f68593"/><path d="M 779.9 141.8 A 70.9 70.9 0 0 1  850.8 212.70000000000002 L 779.9 141.8 A 70.9 70.9 0 0 0 850.8 212.70000000000002" fill="#f25064"/><rect x="850.8000000000001" y="141.8" width="70.9" height="70.9" fill="#ffffff"/><path d="M 850.8 141.8 A 35.45 35.45 0 0 1  886.25 177.25 L 850.8 141.8 A 35.45 35.45 0 0 0 886.25 177.25" fill="#fdfefe"/><path d="M 886.25 177.25 A 35.45 35.45 0 0 1  921.7 141.8 L 886.25 177.25 A 35.45 35.45 0 0 0 921.7 141.8" fill="#f57787"/><path d="M 886.25 212.7 A 35.45 35.45 0 0 1  921.7 177.25 L 886.25 212.7 A 35.45 35.45 0 0 0 921.7 177.25" fill="#97a2b5"/><path d="M 921.7 212.70000000000002 A 70.9 70.9 0 0 1  992.6 141.8 L 921.7 212.70000000000002 A 70.9 70.9 0 0 0 992.6 141.8" fill="#a3adbe"/><path d="M 70.9 212.7 A 70.9 70.9 0 0 1  141.8 283.6 L 70.9 212.7 A 70.9 70.9 0 0 0 141.8 283.6" fill="#f25266"/><rect x="283.6" y="212.70000000000002" width="70.9" height="70.9" fill="#ffffff"/><rect x="354.5" y="212.70000000000002" width="70.9" height="70.9" fill="#ffffff"/><path d="M 354.5 248.15 A 35.45 35.45 0 0 1  389.95 283.6 L 354.5 248.15 A 35.45 35.45 0 0 0 389.95 283.6" fill="#f2f3f6"/><path d="M 389.95 248.15 A 35.45 35.45 0 0 1  425.4 283.6 L 389.95 248.15 A 35.45 35.45 0 0 0 425.4 283.6" fill="#f9aeb7"/><rect x="425.40000000000003" y="212.70000000000002" width="70.9" height="70.9" fill="#ffffff"/><path d="M 425.4 248.14999999999998 A 35.45 35.45 0 0 1  460.84999999999997 212.7 L 425.4 248.14999999999998 A 35.45 35.45 0 0 0 460.84999999999997 212.7" fill="#f02b43"/><path d="M 425.4 283.6 A 35.45 35.45 0 0 1  460.84999999999997 248.15 L 425.4 283.6 A 35.45 35.45 0 0 0 460.84999999999997 248.15" fill="#f9a6b0"/><path d="M 709 283.6 A 70.9 70.9 0 0 1  779.9 212.7 L 709 283.6 A 70.9 70.9 0 0 0 779.9 212.7" fill="#f0354c"/><rect x="850.8000000000001" y="212.70000000000002" width="70.9" height="70.9" fill="#ffffff"/><path d="M 886.25 283.6 A 35.45 35.45 0 0 1  921.7 248.15 L 886.25 283.6 A 35.45 35.45 0 0 0 921.7 248.15" fill="#fcfcfd"/><path d="M 992.6 283.6 A 70.9 70.9 0 0 1  1063.5 212.7 L 992.6 283.6 A 70.9 70.9 0 0 0 1063.5 212.7" fill="#97a2b5"/><path d="M 1063.5 212.7 A 70.9 70.9 0 0 1  1134.4 283.6 L 1063.5 212.7 A 70.9 70.9 0 0 0 1134.4 283.6" fill="#bac2ce"/><rect x="0" y="283.6" width="70.9" height="70.9" fill="#ffffff"/><rect x="70.9" y="283.6" width="70.9" height="70.9" fill="#ffffff"/><path d="M 106.35 319.05 A 35.45 35.45 0 0 1  141.8 283.6 L 106.35 319.05 A 35.45 35.45 0 0 0 141.8 283.6" fill="#fbc9d0"/><path d="M 212.7 283.6 A 70.9 70.9 0 0 1  283.6 354.5 L 212.7 283.6 A 70.9 70.9 0 0 0 283.6 354.5" fill="#f35c6f"/><path d="M 283.6 283.6 A 70.9 70.9 0 0 1  354.5 354.5 L 283.6 283.6 A 70.9 70.9 0 0 0 354.5 354.5" fill="#eef0f3"/><rect x="354.5" y="283.6" width="70.9" height="70.9" fill="#ffffff"/><path d="M 354.5 319.05 A 35.45 35.45 0 0 1  389.95 354.5 L 354.5 319.05 A 35.45 35.45 0 0 0 389.95 354.5" fill="#f9abb5"/><path d="M 389.95 354.5 A 35.45 35.45 0 0 1  425.4 319.05 L 389.95 354.5 A 35.45 35.45 0 0 0 425.4 319.05" fill="#f57786"/><rect x="425.40000000000003" y="283.6" width="70.9" height="70.9" fill="#ffffff"/><path d="M 425.4 319.05 A 35.45 35.45 0 0 1  460.84999999999997 283.6 L 425.4 319.05 A 35.45 35.45 0 0 0 460.84999999999997 283.6" fill="#a3adbe"/><path d="M 460.85 319.05 A 35.45 35.45 0 0 1  496.3 283.6 L 460.85 319.05 A 35.45 35.45 0 0 0 496.3 283.6" fill="#e5e7ec"/><path d="M 850.8 283.6 A 70.9 70.9 0 0 1  921.6999999999999 354.5 L 850.8 283.6 A 70.9 70.9 0 0 0 921.6999999999999 354.5" fill="#c0c6d2"/><path d="M 921.7 283.6 A 70.9 70.9 0 0 1  992.6 354.5 L 921.7 283.6 A 70.9 70.9 0 0 0 992.6 354.5" fill="#abb4c3"/><rect x="0" y="354.5" width="70.9" height="70.9" fill="#ffffff"/><path d="M 0 389.95 A 35.45 35.45 0 0 1  35.45 354.5 L 0 389.95 A 35.45 35.45 0 0 0 35.45 354.5" fill="#f6f7f9"/><rect x="70.9" y="354.5" width="70.9" height="70.9" fill="#ffffff"/><path d="M 70.9 389.95 A 35.45 35.45 0 0 1  106.35000000000001 354.5 L 70.9 389.95 A 35.45 35.45 0 0 0 106.35000000000001 354.5" fill="#f57a89"/><path d="M 425.4 354.5 A 70.9 70.9 0 0 1  496.29999999999995 425.4 L 425.4 354.5 A 70.9 70.9 0 0 0 496.29999999999995 425.4" fill="#a0aabc"/><path d="M 638.1 425.4 A 70.9 70.9 0 0 1  709 354.5 L 638.1 425.4 A 70.9 70.9 0 0 0 709 354.5" fill="#95a0b4"/><rect x="921.7" y="354.5" width="70.9" height="70.9" fill="#ffffff"/><path d="M 921.7 389.95 A 35.45 35.45 0 0 1  957.1500000000001 354.5 L 921.7 389.95 A 35.45 35.45 0 0 0 957.1500000000001 354.5" fill="#bbc2cf"/><path d="M 957.15 389.95 A 35.45 35.45 0 0 1  992.6 354.5 L 957.15 389.95 A 35.45 35.45 0 0 0 992.6 354.5" fill="#f25366"/><path d="M 957.15 425.4 A 35.45 35.45 0 0 1  992.6 389.95 L 957.15 425.4 A 35.45 35.45 0 0 0 992.6 389.95" fill="#97a2b5"/><rect x="212.70000000000002" y="425.40000000000003" width="70.9" height="70.9" fill="#ffffff"/><path d="M 248.15 425.4 A 35.45 35.45 0 0 1  283.6 460.84999999999997 L 248.15 425.4 A 35.45 35.45 0 0 0 283.6 460.84999999999997" fill="#fde5e8"/><path d="M 354.5 496.29999999999995 A 70.9 70.9 0 0 1  425.4 425.4 L 354.5 496.29999999999995 A 70.9 70.9 0 0 0 425.4 425.4" fill="#95a0b3"/><rect x="496.30000000000007" y="425.40000000000003" width="70.9" height="70.9" fill="#ffffff"/><path d="M 531.75 425.4 A 35.45 35.45 0 0 1  567.2 460.84999999999997 L 531.75 425.4 A 35.45 35.45 0 0 0 567.2 460.84999999999997" fill="#c8cdd8"/><rect x="567.2" y="425.40000000000003" width="70.9" height="70.9" fill="#ffffff"/><path d="M 567.2 460.84999999999997 A 35.45 35.45 0 0 1  602.6500000000001 425.4 L 567.2 460.84999999999997 A 35.45 35.45 0 0 0 602.6500000000001 425.4" fill="#e3e6eb"/><rect x="992.6000000000001" y="425.40000000000003" width="70.9" height="70.9" fill="#ffffff"/><path d="M 992.6 496.3 A 35.45 35.45 0 0 1  1028.05 460.85 L 992.6 496.3 A 35.45 35.45 0 0 0 1028.05 460.85" fill="#bfc5d1"/><rect x="70.9" y="496.30000000000007" width="70.9" height="70.9" fill="#ffffff"/><path d="M 283.6 567.2 A 70.9 70.9 0 0 1  354.5 496.3 L 283.6 567.2 A 70.9 70.9 0 0 0 354.5 496.3" fill="#a6afbf"/><path d="M 425.4 496.3 A 70.9 70.9 0 0 1  496.29999999999995 567.2 L 425.4 496.3 A 70.9 70.9 0 0 0 496.29999999999995 567.2" fill="#e8eaef"/><path d="M 567.2 496.3 A 70.9 70.9 0 0 1  638.1 567.2 L 567.2 496.3 A 70.9 70.9 0 0 0 638.1 567.2" fill="#f25064"/><rect x="709" y="496.30000000000007" width="70.9" height="70.9" fill="#ffffff"/><path d="M 709 496.3 A 35.45 35.45 0 0 1  744.45 531.75 L 709 496.3 A 35.45 35.45 0 0 0 744.45 531.75" fill="#a0aabb"/><path d="M 744.45 531.75 A 35.45 35.45 0 0 1  779.9000000000001 567.2 L 744.45 531.75 A 35.45 35.45 0 0 0 779.9000000000001 567.2" fill="#a8b2c2"/><path d="M 850.8 496.3 A 70.9 70.9 0 0 1  921.6999999999999 567.2 L 850.8 496.3 A 70.9 70.9 0 0 0 921.6999999999999 567.2" fill="#f2475c"/><rect x="992.6000000000001" y="496.30000000000007" width="70.9" height="70.9" fill="#ffffff"/><rect x="70.9" y="567.2" width="70.9" height="70.9" fill="#ffffff"/><rect x="354.5" y="567.2" width="70.9" height="70.9" fill="#ffffff"/><rect x="425.40000000000003" y="567.2" width="70.9" height="70.9" fill="#ffffff"/><path d="M 425.4 602.6500000000001 A 35.45 35.45 0 0 1  460.84999999999997 567.2 L 425.4 602.6500000000001 A 35.45 35.45 0 0 0 460.84999999999997 567.2" fill="#f8a5b0"/><path d="M 460.85 602.6500000000001 A 35.45 35.45 0 0 1  496.3 567.2 L 460.85 602.6500000000001 A 35.45 35.45 0 0 0 496.3 567.2" fill="#f9acb5"/><rect x="567.2" y="567.2" width="70.9" height="70.9" fill="#ffffff"/><path d="M 567.2 602.65 A 35.45 35.45 0 0 1  602.6500000000001 638.1 L 567.2 602.65 A 35.45 35.45 0 0 0 602.6500000000001 638.1" fill="#bbc2ce"/><path d="M 638.1 567.2 A 70.9 70.9 0 0 1  709 638.1 L 638.1 567.2 A 70.9 70.9 0 0 0 709 638.1" fill="#f35467"/><path d="M 709 638.1 A 70.9 70.9 0 0 1  779.9 567.2 L 709 638.1 A 70.9 70.9 0 0 0 779.9 567.2" fill="#8f9bb0"/><rect x="0" y="638.1" width="70.9" height="70.9" fill="#ffffff"/><path d="M 0 673.5500000000001 A 35.45 35.45 0 0 1  35.45 638.1 L 0 673.5500000000001 A 35.45 35.45 0 0 0 35.45 638.1" fill="#f46e7e"/><path d="M 425.4 709 A 70.9 70.9 0 0 1  496.29999999999995 638.1 L 425.4 709 A 70.9 70.9 0 0 0 496.29999999999995 638.1" fill="#f02e46"/><path d="M 638.1 709 A 70.9 70.9 0 0 1  709 638.1 L 638.1 709 A 70.9 70.9 0 0 0 709 638.1" fill="#fde9eb"/><rect x="779.9000000000001" y="638.1" width="70.9" height="70.9" fill="#ffffff"/><path d="M 779.9 673.5500000000001 A 35.45 35.45 0 0 1  815.35 638.1 L 779.9 673.5500000000001 A 35.45 35.45 0 0 0 815.35 638.1" fill="#f57786"/><path d="M 992.6 638.1 A 70.9 70.9 0 0 1  1063.5 709 L 992.6 638.1 A 70.9 70.9 0 0 0 1063.5 709" fill="#f89ea9"/></g></svg>